<svg width="68" height="37" viewBox="0 0 68 37" fill="none" xmlns="http://www.w3.org/2000/svg">
<path d="M14.2375 37C6.83746 37 0.937469 31.1 0.937469 23.9C0.937469 16.7 6.83746 10.9 14.2375 10.9C14.3041 10.9 14.3708 10.9 14.4375 10.9C17.1375 4.99999 23.1374 0.899994 30.0374 0.899994C38.8374 0.899994 46.1374 7.49999 47.0374 15.9C47.1041 15.9 47.1375 15.9 47.1375 15.9C53.1375 15.9 57.9375 20.6 57.9375 26.4C57.9375 32.2 53.1375 37 47.1375 37" fill="white"/>
<path d="M40.3375 37C35.6375 37 31.9375 33.3 31.9375 28.7C31.9375 24.1 35.6375 20.3 40.3375 20.3C40.3375 20.3 40.3708 20.3 40.4375 20.3C42.1375 16.6 45.9375 14 50.3375 14C55.8375 14 60.4374 18.2 61.0374 23.5C61.0374 23.5 61.0708 23.5 61.1375 23.5C64.8375 23.5 67.9375 26.5 67.9375 30.3C67.9375 34 64.8375 37 61.1375 37" fill="url(#paint0_linear_51_2698)"/>
<defs>
<linearGradient id="paint0_linear_51_2698" x1="38.569" y1="37" x2="61.505" y2="14.2003" gradientUnits="userSpaceOnUse">
<stop stop-color="#EBEBEB"/>
<stop offset="1" stop-color="#F3F3F3"/>
</linearGradient>
</defs>
</svg>
