<svg width="46" height="54" viewBox="0 0 46 54" fill="none" xmlns="http://www.w3.org/2000/svg">
<path d="M23.4 53.6125C10.5 53.6125 0 43.1125 0 30.2125C0 19.8125 7 10.6125 17 7.71252C17.4 7.61252 17.9 7.71251 18.2 8.01251C18.5 8.31251 18.6 8.81252 18.5 9.21252C17.9667 11.1459 17.7 13.0792 17.7 15.0125C17.7 26.5125 27.1 35.9125 38.6 35.9125C40.5333 35.9125 42.4666 35.6458 44.4 35.1125C44.8 35.0125 45.3 35.1125 45.6 35.4125C45.9 35.7125 46 36.2125 45.9 36.6125C43 46.6125 33.8 53.6125 23.4 53.6125Z" fill="#F0D7BF"/>
<path d="M30.4 6.91249C30.1 8.01249 29.7 8.01249 29.4 6.91249C29.1 5.91249 28 4.8125 27 4.5125C25.9 4.2125 25.9 3.8125 27 3.5125C28 3.2125 29.1 2.11251 29.4 1.11251C29.7 0.0125061 30.1 0.0125061 30.4 1.11251C30.7 2.11251 31.8 3.2125 32.8 3.5125C33.9 3.8125 33.9 4.2125 32.8 4.5125C31.8 4.8125 30.7 5.91249 30.4 6.91249Z" fill="url(#paint0_linear_51_2723)"/>
<path d="M38.8 23.0125C38.4 24.6125 37.7 24.6125 37.3 23.0125C36.9 21.4125 35.2 19.8125 33.6 19.4125C32.1 18.9125 32.1 18.2125 33.6 17.8125C35.2 17.4125 36.9 15.7125 37.3 14.2125C37.7 12.6125 38.4 12.6125 38.8 14.2125C39.3 15.7125 40.9 17.4125 42.5 17.8125C44.1 18.2125 44.1 18.9125 42.5 19.4125C40.9 19.8125 39.3 21.4125 38.8 23.0125Z" fill="url(#paint1_linear_51_2723)"/>
<defs>
<linearGradient id="paint0_linear_51_2723" x1="26.2" y1="7.71249" x2="33.6" y2="0.312506" gradientUnits="userSpaceOnUse">
<stop stop-color="#FFBC27"/>
<stop offset="1" stop-color="#FDE252"/>
</linearGradient>
<linearGradient id="paint1_linear_51_2723" x1="32.4" y1="24.2125" x2="43.7" y2="13.0125" gradientUnits="userSpaceOnUse">
<stop stop-color="#FFBC27"/>
<stop offset="1" stop-color="#FDE252"/>
</linearGradient>
</defs>
</svg>
