<svg width="68" height="45" viewBox="0 0 68 45" fill="none" xmlns="http://www.w3.org/2000/svg">
<path d="M53.6375 29.85C45.4375 29.85 38.8375 23.25 38.8375 15.15C38.8375 8.65001 43.2375 2.75001 49.5375 0.950012C49.8375 0.950012 50.1375 0.950009 50.3375 1.15001C50.5375 1.35001 50.5375 1.65001 50.5375 1.95001C50.1375 3.15001 49.9375 4.35002 49.9375 5.55002C49.9375 12.85 55.9375 18.75 63.1375 18.75C64.4041 18.75 65.6375 18.5833 66.8375 18.25C67.1375 18.15 67.3375 18.25 67.5375 18.45C67.7375 18.65 67.8375 18.95 67.7375 19.25C65.9375 25.55 60.1375 29.85 53.6375 29.85V29.85Z" fill="#F0D7BF"/>
<path d="M63.2376 8.25C62.9376 9.35 62.5376 9.35 62.2376 8.25C61.9376 7.25 60.8376 6.14999 59.8376 5.84999C58.7376 5.54999 58.7376 5.14999 59.8376 4.84999C60.8376 4.54999 61.9376 3.45 62.2376 2.45C62.5376 1.35 62.9376 1.35 63.2376 2.45C63.5376 3.45 64.6375 4.54999 65.6375 4.84999C66.7375 5.14999 66.7375 5.54999 65.6375 5.84999C64.6375 6.14999 63.5376 7.25 63.2376 8.25Z" fill="url(#paint0_linear_51_2733)"/>
<path d="M7.8375 10.95C7.6375 11.75 7.23745 11.75 7.03745 10.95C6.83745 10.15 5.93743 9.25001 5.13743 9.05001C4.43743 8.85001 4.43743 8.55001 5.13743 8.25001C5.93743 8.05001 6.83745 7.25001 7.03745 6.45001C7.23745 5.65001 7.6375 5.65001 7.8375 6.45001C8.0375 7.25001 8.83743 8.05001 9.63743 8.25001C10.4374 8.55001 10.4374 8.85001 9.63743 9.05001C8.83743 9.25001 8.0375 10.15 7.8375 10.95Z" fill="url(#paint1_linear_51_2733)"/>
<path d="M14.2375 44.95C6.83755 44.95 0.9375 39.05 0.9375 31.85C0.9375 24.65 6.83755 18.85 14.2375 18.85C14.3042 18.85 14.3708 18.85 14.4375 18.85C17.1375 12.95 23.1375 8.85001 30.0375 8.85001C38.8375 8.85001 46.1375 15.45 47.0375 23.85C47.1041 23.85 47.1375 23.85 47.1375 23.85C53.1375 23.85 57.9375 28.55 57.9375 34.35C57.9375 40.15 53.1375 44.95 47.1375 44.95" fill="url(#paint2_linear_51_2733)"/>
<path d="M40.3375 44.95C35.6375 44.95 31.9375 41.25 31.9375 36.65C31.9375 32.05 35.6375 28.25 40.3375 28.25C40.3375 28.25 40.3708 28.25 40.4375 28.25C42.1375 24.55 45.9375 21.95 50.3375 21.95C55.8375 21.95 60.4375 26.15 61.0375 31.45C61.0375 31.45 61.0708 31.45 61.1375 31.45C64.8375 31.45 67.9375 34.45 67.9375 38.25C67.9375 41.95 64.8375 44.95 61.1375 44.95" fill="white"/>
<defs>
<linearGradient id="paint0_linear_51_2733" x1="59.0376" y1="9.05" x2="66.4376" y2="1.65008" gradientUnits="userSpaceOnUse">
<stop stop-color="#FFBC27"/>
<stop offset="1" stop-color="#FDE252"/>
</linearGradient>
<linearGradient id="paint1_linear_51_2733" x1="4.53743" y1="11.55" x2="10.2374" y2="5.85001" gradientUnits="userSpaceOnUse">
<stop stop-color="#FFBC27"/>
<stop offset="1" stop-color="#FDE252"/>
</linearGradient>
<linearGradient id="paint2_linear_51_2733" x1="11.4375" y1="44.95" x2="47.4375" y2="8.85002" gradientUnits="userSpaceOnUse">
<stop stop-color="#EBEBEB"/>
<stop offset="1" stop-color="#F3F3F3"/>
</linearGradient>
</defs>
</svg>
