<svg width="64" height="47" viewBox="0 0 64 47" fill="none" xmlns="http://www.w3.org/2000/svg">
<path d="M24.1767 46.9188C11.2767 46.9188 0.776733 36.4188 0.776733 23.5188C0.776733 13.1188 7.77673 3.91876 17.7767 1.01876C18.1767 0.918764 18.6767 1.01875 18.9767 1.31875C19.2767 1.61875 19.3767 2.11876 19.2767 2.51876C18.7434 4.4521 18.4767 6.38542 18.4767 8.31875C18.4767 19.8188 27.8767 29.2187 39.3767 29.2187C41.31 29.2187 43.2434 28.9521 45.1767 28.4188C45.5767 28.3188 46.0767 28.4187 46.3767 28.7187C46.6767 29.0187 46.7767 29.5188 46.6767 29.9188C43.7767 39.9188 34.5767 46.9188 24.1767 46.9188Z" fill="#F0D7BF"/>
<path d="M30.1534 25.1688H20.0535C19.2535 25.1688 18.5535 24.4688 18.5535 23.6688C18.5535 22.7688 19.2535 22.0688 20.0535 22.0688H30.1534C31.0534 22.0688 31.7534 22.7688 31.7534 23.6688C31.7534 24.4688 31.0534 25.1688 30.1534 25.1688ZM51.9535 25.1688H36.7534C35.9534 25.1688 35.2534 24.4688 35.2534 23.6688C35.2534 22.7688 35.9534 22.0688 36.7534 22.0688H51.9535C52.7535 22.0688 53.4535 22.7688 53.4535 23.6688C53.4535 24.4688 52.7535 25.1688 51.9535 25.1688ZM30.1534 40.0688H20.0535C19.2535 40.0688 18.5535 39.3688 18.5535 38.4688C18.5535 37.6688 19.2535 36.9688 20.0535 36.9688H30.1534C31.0534 36.9688 31.7534 37.6688 31.7534 38.4688C31.7534 39.3688 31.0534 40.0688 30.1534 40.0688ZM51.9535 40.0688H36.7534C35.9534 40.0688 35.2534 39.3688 35.2534 38.4688C35.2534 37.6688 35.9534 36.9688 36.7534 36.9688H51.9535C52.7535 36.9688 53.4535 37.6688 53.4535 38.4688C53.4535 39.3688 52.7535 40.0688 51.9535 40.0688ZM40.2534 32.8688H20.0535C19.2535 32.8688 18.5535 32.1688 18.5535 31.3688C18.5535 30.4688 19.2535 29.7688 20.0535 29.7688H40.2534C41.1534 29.7688 41.8534 30.4688 41.8534 31.3688C41.8534 32.1688 41.1534 32.8688 40.2534 32.8688ZM62.0535 32.8688H46.8534C46.0534 32.8688 45.3534 32.1688 45.3534 31.3688C45.3534 30.4688 46.0534 29.7688 46.8534 29.7688H62.0535C62.8535 29.7688 63.5535 30.4688 63.5535 31.3688C63.5535 32.1688 62.8535 32.8688 62.0535 32.8688Z" fill="white"/>
</svg>
