<svg width="68" height="74" viewBox="0 0 68 74" fill="none" xmlns="http://www.w3.org/2000/svg">
<path d="M53.6375 28.9C45.4375 28.9 38.8375 22.3 38.8375 14.2C38.8375 7.70001 43.2374 1.8 49.5374 0C49.8374 0 50.1375 1.22041e-05 50.3375 0.200012C50.5375 0.400012 50.5374 0.7 50.5374 1C50.1374 2.2 49.9375 3.39998 49.9375 4.59998C49.9375 11.9 55.9375 17.8 63.1375 17.8C64.4041 17.8 65.6375 17.6333 66.8375 17.3C67.1375 17.2 67.3374 17.3 67.5374 17.5C67.7374 17.7 67.8375 18 67.7375 18.3C65.9375 24.6 60.1375 28.9 53.6375 28.9V28.9Z" fill="#F0D7BF"/>
<path d="M14.2375 45C6.83746 45 0.937469 39.1 0.937469 31.9C0.937469 24.7 6.83746 18.9 14.2375 18.9C14.3041 18.9 14.3708 18.9 14.4375 18.9C17.1375 13 23.1374 8.90002 30.0374 8.90002C38.8374 8.90002 46.1374 15.5 47.0374 23.9C47.1041 23.9 47.1375 23.9 47.1375 23.9C53.1375 23.9 57.9375 28.6 57.9375 34.4C57.9375 40.2 53.1375 45 47.1375 45" fill="url(#paint0_linear_51_2750)"/>
<path d="M40.3375 45C35.6375 45 31.9375 41.3 31.9375 36.7C31.9375 32.1 35.6375 28.3 40.3375 28.3C40.3375 28.3 40.3708 28.3 40.4375 28.3C42.1375 24.6 45.9375 22 50.3375 22C55.8375 22 60.4374 26.2 61.0374 31.5C61.0374 31.5 61.0708 31.5 61.1375 31.5C64.8375 31.5 67.9375 34.5 67.9375 38.3C67.9375 42 64.8375 45 61.1375 45" fill="white"/>
<path d="M8.03742 67.7C7.70409 67.7 7.37075 67.6 7.03742 67.4C6.13742 66.9 5.83747 65.6 6.33747 64.6L12.8375 53.2C13.3375 52.2 14.5374 51.9 15.5374 52.5C16.4374 53 16.7374 54.3 16.2374 55.2L9.83747 66.7C9.43747 67.3 8.73742 67.7 8.03742 67.7V67.7ZM15.1375 73.9C14.8041 73.9 14.4708 73.8 14.1375 73.6C13.2375 73 12.8374 71.8 13.4374 70.8L23.3375 53.2C23.8375 52.2 25.0374 51.9 26.0374 52.5C26.9374 53 27.2374 54.3 26.7374 55.2L16.8375 72.8C16.4375 73.5 15.8375 73.9 15.1375 73.9V73.9ZM39.6375 66.8C39.3041 66.8 38.9708 66.7 38.6375 66.5C37.7375 66 37.3374 64.7 37.9374 63.8L43.8375 53.2C44.4375 52.2 45.6374 51.9 46.5374 52.5C47.5374 53 47.8375 54.3 47.3375 55.2L41.3375 65.8C41.0375 66.5 40.3375 66.8 39.6375 66.8V66.8ZM27.8375 70.3C27.5041 70.3 27.2041 70.2333 26.9374 70.1C25.9374 69.5 25.6375 68.3 26.1375 67.3L34.0374 53.2C34.6374 52.2 35.8374 51.9 36.7374 52.5C37.7374 53 38.0374 54.3 37.5374 55.2L29.6375 69.3C29.2375 70 28.5375 70.3 27.8375 70.3V70.3Z" fill="url(#paint1_linear_51_2750)"/>
<defs>
<linearGradient id="paint0_linear_51_2750" x1="11.4375" y1="45" x2="47.4374" y2="8.9" gradientUnits="userSpaceOnUse">
<stop stop-color="#EBEBEB"/>
<stop offset="1" stop-color="#F3F3F3"/>
</linearGradient>
<linearGradient id="paint1_linear_51_2750" x1="16.0375" y1="73.9" x2="37.6375" y2="52.2" gradientUnits="userSpaceOnUse">
<stop stop-color="#00CCFF"/>
<stop offset="1" stop-color="#5DDEFE"/>
</linearGradient>
</defs>
</svg>
