<svg width="68" height="62" viewBox="0 0 68 62" fill="none" xmlns="http://www.w3.org/2000/svg">
<path d="M52.6374 29.5C44.4374 29.5 37.8375 22.9 37.8375 14.8C37.8375 8.29999 42.2374 2.39998 48.5374 0.599976C48.8374 0.599976 49.1375 0.599988 49.3375 0.799988C49.5375 0.999988 49.5374 1.29998 49.5374 1.59998C49.1374 2.79998 48.9375 3.99995 48.9375 5.19995C48.9375 12.5 54.9374 18.4 62.1374 18.4C63.4041 18.4 64.6375 18.2333 65.8375 17.9C66.1375 17.8 66.3374 17.9 66.5374 18.1C66.7374 18.3 66.8375 18.6 66.7375 18.9C64.9375 25.2 59.1374 29.5 52.6374 29.5V29.5Z" fill="#F0D7BF"/>
<path d="M14.2375 44.6C6.83752 44.6 0.937469 38.7 0.937469 31.5C0.937469 24.3 6.83752 18.5 14.2375 18.5C14.3042 18.5 14.3708 18.5 14.4375 18.5C17.1375 12.6 23.1374 8.5 30.0374 8.5C38.8374 8.5 46.1374 15.1 47.0374 23.5C47.1041 23.5 47.1374 23.5 47.1374 23.5C53.1374 23.5 57.9375 28.2 57.9375 34C57.9375 39.8 53.1374 44.6 47.1374 44.6" fill="url(#paint0_linear_51_2745)"/>
<path d="M40.3375 44.6C35.6375 44.6 31.9375 40.9 31.9375 36.3C31.9375 31.7 35.6375 27.9 40.3375 27.9C40.3375 27.9 40.3708 27.9 40.4375 27.9C42.1375 24.2 45.9375 21.6 50.3375 21.6C55.8375 21.6 60.4374 25.8 61.0374 31.1C61.0374 31.1 61.0708 31.1 61.1374 31.1C64.8374 31.1 67.9375 34.1 67.9375 37.9C67.9375 41.6 64.8374 44.6 61.1374 44.6" fill="white"/>
<path d="M12.1375 61.3C11.8041 61.3 11.4708 61.2333 11.1375 61.1C10.2375 60.5 9.8375 59.3 10.4375 58.4L13.3375 53.5C13.9375 52.6 15.1375 52.3 16.1375 52.8C17.0375 53.3 17.4375 54.5 16.8375 55.5L13.9375 60.3C13.5375 61 12.8375 61.3 12.1375 61.3V61.3ZM25.9375 61.3C25.6042 61.3 25.2708 61.2333 24.9375 61.1C23.9375 60.5 23.6375 59.3 24.1375 58.4L27.0375 53.5C27.6375 52.6 28.8375 52.3 29.8375 52.8C30.8375 53.3 31.1375 54.5 30.5375 55.5L27.6375 60.3C27.2375 61 26.6375 61.3 25.9375 61.3V61.3ZM40.6375 61.3C40.3041 61.3 39.9708 61.2333 39.6375 61.1C38.6375 60.5 38.3375 59.3 38.9375 58.4L41.8375 53.5C42.3375 52.6 43.6375 52.3 44.5375 52.8C45.5375 53.3 45.8375 54.5 45.3375 55.5L42.4375 60.3C42.0375 61 41.3375 61.3 40.6375 61.3V61.3Z" fill="url(#paint1_linear_51_2745)"/>
<defs>
<linearGradient id="paint0_linear_51_2745" x1="11.4375" y1="44.6" x2="47.4374" y2="8.49998" gradientUnits="userSpaceOnUse">
<stop stop-color="#EBEBEB"/>
<stop offset="1" stop-color="#F3F3F3"/>
</linearGradient>
<linearGradient id="paint1_linear_51_2745" x1="23.4375" y1="61.3" x2="32.2375" y2="52.5" gradientUnits="userSpaceOnUse">
<stop stop-color="#00CCFF"/>
<stop offset="1" stop-color="#5DDEFE"/>
</linearGradient>
</defs>
</svg>
