<svg width="69" height="72" viewBox="0 0 69 72" fill="none" xmlns="http://www.w3.org/2000/svg">
<path d="M54.6375 29.2169C46.4375 29.2169 39.8375 22.617 39.8375 14.517C39.8375 8.01695 44.2375 2.11696 50.5375 0.316956C50.8375 0.316956 51.1375 0.316953 51.3375 0.516953C51.5375 0.716953 51.5375 1.01696 51.5375 1.31696C51.1375 2.51696 50.9375 3.71696 50.9375 4.91696C50.9375 12.217 56.9375 18.117 64.1375 18.117C65.4041 18.117 66.6375 17.9503 67.8375 17.617C68.1375 17.517 68.3375 17.617 68.5375 17.817C68.7375 18.017 68.8375 18.317 68.7375 18.617C66.9375 24.917 61.1375 29.2169 54.6375 29.2169V29.2169Z" fill="#F0D7BF"/>
<path d="M48.9767 55.283C48.9767 58.083 46.7767 60.283 43.9767 60.283C41.2767 60.283 39.0768 58.083 39.0768 55.283C39.0768 52.583 41.2767 50.283 43.9767 50.283C46.7767 50.283 48.9767 52.583 48.9767 55.283Z" fill="url(#paint0_linear_51_2715)"/>
<path d="M14.0768 42.683C6.67678 42.683 0.776733 36.7831 0.776733 29.5831C0.776733 22.3831 6.67678 16.5831 14.0768 16.5831C14.1434 16.5831 14.2101 16.5831 14.2767 16.5831C16.9767 10.6831 22.9767 6.58307 29.8767 6.58307C38.6767 6.58307 45.9767 13.1831 46.8767 21.5831C46.9434 21.5831 46.9767 21.5831 46.9767 21.5831C52.9767 21.5831 57.7767 26.2831 57.7767 32.0831C57.7767 37.8831 52.9767 42.683 46.9767 42.683" fill="white"/>
<path d="M40.1768 42.683C35.4768 42.683 31.7767 38.9831 31.7767 34.3831C31.7767 29.7831 35.4768 25.983 40.1768 25.983C40.1768 25.983 40.2101 25.983 40.2767 25.983C41.9767 22.283 45.7768 19.683 50.1768 19.683C55.6768 19.683 60.2767 23.883 60.8767 29.183C60.8767 29.183 60.91 29.183 60.9767 29.183C64.6767 29.183 67.7767 32.183 67.7767 35.983C67.7767 39.683 64.6767 42.683 60.9767 42.683" fill="url(#paint1_linear_51_2715)"/>
<path d="M13.7767 53.5831C13.7767 54.6831 12.8767 55.5831 11.7767 55.5831C10.6767 55.5831 9.77673 54.6831 9.77673 53.5831C9.77673 52.4831 10.6767 51.5831 11.7767 51.5831C12.8767 51.5831 13.7767 52.4831 13.7767 53.5831ZM23.7767 53.5831C23.7767 54.6831 22.8767 55.5831 21.7767 55.5831C20.6767 55.5831 19.7767 54.6831 19.7767 53.5831C19.7767 52.4831 20.6767 51.5831 21.7767 51.5831C22.8767 51.5831 23.7767 52.4831 23.7767 53.5831ZM33.7767 53.5831C33.7767 54.6831 32.8767 55.5831 31.7767 55.5831C30.6767 55.5831 29.7767 54.6831 29.7767 53.5831C29.7767 52.4831 30.6767 51.5831 31.7767 51.5831C32.8767 51.5831 33.7767 52.4831 33.7767 53.5831ZM13.7767 69.683C13.7767 70.783 12.8767 71.5831 11.7767 71.5831C10.6767 71.5831 9.77673 70.783 9.77673 69.683C9.77673 68.583 10.6767 67.683 11.7767 67.683C12.8767 67.683 13.7767 68.583 13.7767 69.683ZM23.7767 69.683C23.7767 70.783 22.8767 71.5831 21.7767 71.5831C20.6767 71.5831 19.7767 70.783 19.7767 69.683C19.7767 68.583 20.6767 67.683 21.7767 67.683C22.8767 67.683 23.7767 68.583 23.7767 69.683ZM18.7767 61.783C18.7767 62.883 17.8767 63.683 16.7767 63.683C15.6767 63.683 14.7767 62.883 14.7767 61.783C14.7767 60.683 15.6767 59.783 16.7767 59.783C17.8767 59.783 18.7767 60.683 18.7767 61.783ZM28.7767 61.783C28.7767 62.883 27.8767 63.683 26.7767 63.683C25.6767 63.683 24.7767 62.883 24.7767 61.783C24.7767 60.683 25.6767 59.783 26.7767 59.783C27.8767 59.783 28.7767 60.683 28.7767 61.783Z" fill="url(#paint2_linear_51_2715)"/>
<defs>
<linearGradient id="paint0_linear_51_2715" x1="39.0768" y1="60.283" x2="48.9768" y2="50.2831" gradientUnits="userSpaceOnUse">
<stop stop-color="#D6F2FD"/>
<stop offset="1" stop-color="#E5F5FD"/>
</linearGradient>
<linearGradient id="paint1_linear_51_2715" x1="38.4083" y1="42.683" x2="61.3443" y2="19.8834" gradientUnits="userSpaceOnUse">
<stop stop-color="#EBEBEB"/>
<stop offset="1" stop-color="#F3F3F3"/>
</linearGradient>
<linearGradient id="paint2_linear_51_2715" x1="11.7767" y1="71.5831" x2="31.7767" y2="51.5831" gradientUnits="userSpaceOnUse">
<stop stop-color="#D6F2FD"/>
<stop offset="1" stop-color="#E5F5FD"/>
</linearGradient>
</defs>
</svg>
