<svg width="69" height="68" viewBox="0 0 69 68" fill="none" xmlns="http://www.w3.org/2000/svg">
<path d="M33.2376 41.1839C34.8376 41.1839 35.5376 42.3839 34.7376 43.7839L31.7376 48.8839C30.9376 50.2839 31.6375 51.3839 33.3375 51.2839L39.9375 50.9839C41.6375 50.8839 41.9375 51.6839 40.6375 52.7839L23.2376 67.0839C21.9376 68.1839 21.5375 67.7839 22.3375 66.3839L27.1375 57.4839C27.9375 55.9839 27.2375 54.8839 25.5375 55.0839L21.2376 55.3839C19.6376 55.4839 18.9376 54.3839 19.7376 52.9839L25.0375 43.7839C25.8375 42.3839 27.9375 41.1839 29.5375 41.1839H33.2376Z" fill="url(#paint0_linear_51_2761)"/>
<path d="M54.6375 29.0839C46.4375 29.0839 39.8375 22.4839 39.8375 14.3839C39.8375 7.8839 44.2375 1.9839 50.5375 0.183899C50.8375 0.183899 51.1375 0.183896 51.3375 0.383896C51.5375 0.583896 51.5375 0.883899 51.5375 1.1839C51.1375 2.3839 50.9375 3.5839 50.9375 4.78391C50.9375 12.0839 56.9375 17.9839 64.1375 17.9839C65.4041 17.9839 66.6375 17.8172 67.8375 17.4839C68.1375 17.3839 68.3375 17.4839 68.5375 17.6839C68.7375 17.8839 68.8375 18.1839 68.7375 18.4839C66.9375 24.7839 61.1375 29.0839 54.6375 29.0839V29.0839Z" fill="#F0D7BF"/>
<path d="M14.2375 45.1839C6.83755 45.1839 0.9375 39.2839 0.9375 32.0839C0.9375 24.8839 6.83755 19.0839 14.2375 19.0839C14.3042 19.0839 14.3708 19.0839 14.4375 19.0839C17.1375 13.1839 23.1375 9.08389 30.0375 9.08389C38.8375 9.08389 46.1375 15.6839 47.0375 24.0839C47.1041 24.0839 47.1375 24.0839 47.1375 24.0839C53.1375 24.0839 57.9375 28.7839 57.9375 34.5839C57.9375 40.3839 53.1375 45.1839 47.1375 45.1839" fill="url(#paint1_linear_51_2761)"/>
<path d="M40.3375 45.1839C35.6375 45.1839 31.9375 41.4839 31.9375 36.8839C31.9375 32.2839 35.6375 28.4839 40.3375 28.4839C40.3375 28.4839 40.3708 28.4839 40.4375 28.4839C42.1375 24.7839 45.9375 22.1839 50.3375 22.1839C55.8375 22.1839 60.4375 26.3839 61.0375 31.6839C61.0375 31.6839 61.0708 31.6839 61.1375 31.6839C64.8375 31.6839 67.9375 34.6839 67.9375 38.4839C67.9375 42.1839 64.8375 45.1839 61.1375 45.1839" fill="white"/>
<defs>
<linearGradient id="paint0_linear_51_2761" x1="19.4376" y1="65.4839" x2="41.4376" y2="43.384" gradientUnits="userSpaceOnUse">
<stop stop-color="#FFBC27"/>
<stop offset="1" stop-color="#FDE252"/>
</linearGradient>
<linearGradient id="paint1_linear_51_2761" x1="11.4375" y1="45.1839" x2="47.4375" y2="9.0839" gradientUnits="userSpaceOnUse">
<stop stop-color="#EBEBEB"/>
<stop offset="1" stop-color="#F3F3F3"/>
</linearGradient>
</defs>
</svg>
