<svg width="67" height="37" viewBox="0 0 67 37" fill="none" xmlns="http://www.w3.org/2000/svg">
<path d="M13.3 36.75C5.89999 36.75 0 30.85 0 23.65C0 16.45 5.89999 10.65 13.3 10.65C13.3667 10.65 13.4333 10.65 13.5 10.65C16.2 4.74999 22.2 0.649994 29.1 0.649994C37.9 0.649994 45.2 7.24999 46.1 15.65C46.1666 15.65 46.2 15.65 46.2 15.65C52.2 15.65 57 20.35 57 26.15C57 31.95 52.2 36.75 46.2 36.75" fill="white"/>
<path d="M39.4 36.75C34.7 36.75 31 33.05 31 28.45C31 23.85 34.7 20.05 39.4 20.05C39.4 20.05 39.4333 20.05 39.5 20.05C41.2 16.35 45 13.75 49.4 13.75C54.9 13.75 59.5 17.95 60.1 23.25C60.1 23.25 60.1333 23.25 60.2 23.25C63.9 23.25 67 26.25 67 30.05C67 33.75 63.9 36.75 60.2 36.75" fill="url(#paint0_linear_51_2659)"/>
<defs>
<linearGradient id="paint0_linear_51_2659" x1="37.6316" y1="36.75" x2="60.5675" y2="13.9503" gradientUnits="userSpaceOnUse">
<stop stop-color="#EBEBEB"/>
<stop offset="1" stop-color="#F3F3F3"/>
</linearGradient>
</defs>
</svg>
