<svg width="63" height="42" viewBox="0 0 63 42" fill="none" xmlns="http://www.w3.org/2000/svg">
<path d="M41 20.7C41 32 31.8 41.2 20.5 41.2C9.2 41.2 0 32 0 20.7C0 9.40001 9.2 0.200012 20.5 0.200012C31.8 0.200012 41 9.40001 41 20.7Z" fill="url(#paint0_linear_51_2686)"/>
<path d="M29.5 21H19.4C18.6 21 17.9 20.3 17.9 19.5C17.9 18.6 18.6 17.9 19.4 17.9H29.5C30.4 17.9 31.1 18.6 31.1 19.5C31.1 20.3 30.4 21 29.5 21ZM51.3 21H36.1C35.3 21 34.6 20.3 34.6 19.5C34.6 18.6 35.3 17.9 36.1 17.9H51.3C52.1 17.9 52.8 18.6 52.8 19.5C52.8 20.3 52.1 21 51.3 21ZM29.5 35.9H19.4C18.6 35.9 17.9 35.2 17.9 34.3C17.9 33.5 18.6 32.8 19.4 32.8H29.5C30.4 32.8 31.1 33.5 31.1 34.3C31.1 35.2 30.4 35.9 29.5 35.9ZM51.3 35.9H36.1C35.3 35.9 34.6 35.2 34.6 34.3C34.6 33.5 35.3 32.8 36.1 32.8H51.3C52.1 32.8 52.8 33.5 52.8 34.3C52.8 35.2 52.1 35.9 51.3 35.9ZM39.6 28.7H19.4C18.6 28.7 17.9 28 17.9 27.2C17.9 26.3 18.6 25.6 19.4 25.6H39.6C40.5 25.6 41.2 26.3 41.2 27.2C41.2 28 40.5 28.7 39.6 28.7ZM61.4 28.7H46.2C45.4 28.7 44.7 28 44.7 27.2C44.7 26.3 45.4 25.6 46.2 25.6H61.4C62.2 25.6 62.9 26.3 62.9 27.2C62.9 28 62.2 28.7 61.4 28.7Z" fill="white"/>
<defs>
<linearGradient id="paint0_linear_51_2686" x1="0" y1="41.2" x2="41" y2="0.200012" gradientUnits="userSpaceOnUse">
<stop stop-color="#FFBC27"/>
<stop offset="1" stop-color="#FDE252"/>
</linearGradient>
</defs>
</svg>
