<svg width="67" height="76" viewBox="0 0 67 76" fill="none" xmlns="http://www.w3.org/2000/svg">
<path d="M61 13C61 20.2 55.2 26 48 26C40.8 26 35 20.2 35 13C35 5.8 40.8 0 48 0C55.2 0 61 5.8 61 13Z" fill="url(#paint0_linear_51_2755)"/>
<path d="M13.3 46.5C5.89999 46.5 0 40.6 0 33.4C0 26.2 5.89999 20.4 13.3 20.4C13.3667 20.4 13.4333 20.4 13.5 20.4C16.2 14.5 22.2 10.4 29.1 10.4C37.9 10.4 45.2 17 46.1 25.4C46.1666 25.4 46.2 25.4 46.2 25.4C52.2 25.4 57 30.1 57 35.9C57 41.7 52.2 46.5 46.2 46.5" fill="url(#paint1_linear_51_2755)"/>
<path d="M39.4 46.5C34.7 46.5 31 42.8 31 38.2C31 33.6 34.7 29.8 39.4 29.8C39.4 29.8 39.4333 29.8 39.5 29.8C41.2 26.1 45 23.5 49.4 23.5C54.9 23.5 59.5 27.7 60.1 33C60.1 33 60.1333 33 60.2 33C63.9 33 67 36 67 39.8C67 43.5 63.9 46.5 60.2 46.5" fill="white"/>
<path d="M7.09995 69.2C6.76662 69.2 6.43328 69.1 6.09995 68.9C5.19995 68.4 4.9 67.1 5.4 66.1L11.9 54.7C12.4 53.7 13.5999 53.4 14.5999 54C15.4999 54.5 15.8 55.8 15.3 56.7L8.9 68.2C8.5 68.8 7.79995 69.2 7.09995 69.2V69.2ZM14.2 75.4C13.8667 75.4 13.5333 75.3 13.2 75.1C12.3 74.5 11.9 73.3 12.5 72.3L22.4 54.7C22.9 53.7 24.0999 53.4 25.0999 54C25.9999 54.5 26.3 55.8 25.8 56.7L15.9 74.3C15.5 75 14.9 75.4 14.2 75.4V75.4ZM38.7 68.3C38.3667 68.3 38.0333 68.2 37.7 68C36.8 67.5 36.4 66.2 37 65.3L42.9 54.7C43.5 53.7 44.6999 53.4 45.5999 54C46.5999 54.5 46.9 55.8 46.4 56.7L40.4 67.3C40.1 68 39.4 68.3 38.7 68.3V68.3ZM26.9 71.8C26.5667 71.8 26.2666 71.7333 26 71.6C25 71 24.7 69.8 25.2 68.8L33.0999 54.7C33.6999 53.7 34.9 53.4 35.8 54C36.8 54.5 37.0999 55.8 36.5999 56.7L28.7 70.8C28.3 71.5 27.6 71.8 26.9 71.8V71.8Z" fill="url(#paint2_linear_51_2755)"/>
<defs>
<linearGradient id="paint0_linear_51_2755" x1="35" y1="26" x2="61" y2="0" gradientUnits="userSpaceOnUse">
<stop stop-color="#FFBC27"/>
<stop offset="1" stop-color="#FDE252"/>
</linearGradient>
<linearGradient id="paint1_linear_51_2755" x1="10.5" y1="46.5" x2="46.5" y2="10.4" gradientUnits="userSpaceOnUse">
<stop stop-color="#EBEBEB"/>
<stop offset="1" stop-color="#F3F3F3"/>
</linearGradient>
<linearGradient id="paint2_linear_51_2755" x1="15.1" y1="75.4" x2="36.7" y2="53.7" gradientUnits="userSpaceOnUse">
<stop stop-color="#00CCFF"/>
<stop offset="1" stop-color="#5DDEFE"/>
</linearGradient>
</defs>
</svg>
