<svg width="67" height="60" viewBox="0 0 67 60" fill="none" xmlns="http://www.w3.org/2000/svg">
<path d="M61 13.35C61 20.55 55.2 26.35 48 26.35C40.8 26.35 35 20.55 35 13.35C35 6.14998 40.8 0.349976 48 0.349976C55.2 0.349976 61 6.14998 61 13.35Z" fill="url(#paint0_linear_51_2665)"/>
<path d="M13.3 42.35C5.89999 42.35 0 36.45 0 29.25C0 22.05 5.89999 16.25 13.3 16.25C13.3667 16.25 13.4333 16.25 13.5 16.25C16.2 10.35 22.2 6.25 29.1 6.25C37.9 6.25 45.2 12.85 46.1 21.25C46.1666 21.25 46.2 21.25 46.2 21.25C52.2 21.25 57 25.95 57 31.75C57 37.55 52.2 42.35 46.2 42.35" fill="white"/>
<path d="M39.4 42.35C34.7 42.35 31 38.65 31 34.05C31 29.45 34.7 25.65 39.4 25.65C39.4 25.65 39.4333 25.65 39.5 25.65C41.2 21.95 45 19.35 49.4 19.35C54.9 19.35 59.5 23.55 60.1 28.85C60.1 28.85 60.1333 28.85 60.2 28.85C63.9 28.85 67 31.85 67 35.65C67 39.35 63.9 42.35 60.2 42.35" fill="url(#paint1_linear_51_2665)"/>
<path d="M12.2 59.05C11.8667 59.05 11.5334 58.9833 11.2 58.85C10.3 58.25 9.90001 57.05 10.5 56.15L13.4 51.25C14 50.35 15.2 50.05 16.2 50.55C17.1 51.05 17.5 52.25 16.9 53.25L14 58.05C13.6 58.75 12.9 59.05 12.2 59.05V59.05ZM26 59.05C25.6667 59.05 25.3333 58.9833 25 58.85C24 58.25 23.7 57.05 24.2 56.15L27.1 51.25C27.7 50.35 28.9 50.05 29.9 50.55C30.9 51.05 31.2 52.25 30.6 53.25L27.7 58.05C27.3 58.75 26.7 59.05 26 59.05V59.05ZM40.7 59.05C40.3667 59.05 40.0334 58.9833 39.7 58.85C38.7 58.25 38.4 57.05 39 56.15L41.9 51.25C42.4 50.35 43.7 50.05 44.6 50.55C45.6 51.05 45.9 52.25 45.4 53.25L42.5 58.05C42.1 58.75 41.4 59.05 40.7 59.05V59.05Z" fill="url(#paint2_linear_51_2665)"/>
<defs>
<linearGradient id="paint0_linear_51_2665" x1="35" y1="26.35" x2="61" y2="0.349976" gradientUnits="userSpaceOnUse">
<stop stop-color="#FFBC27"/>
<stop offset="1" stop-color="#FDE252"/>
</linearGradient>
<linearGradient id="paint1_linear_51_2665" x1="37.6316" y1="42.35" x2="60.5675" y2="19.5503" gradientUnits="userSpaceOnUse">
<stop stop-color="#EBEBEB"/>
<stop offset="1" stop-color="#F3F3F3"/>
</linearGradient>
<linearGradient id="paint2_linear_51_2665" x1="23.5" y1="59.05" x2="32.3" y2="50.25" gradientUnits="userSpaceOnUse">
<stop stop-color="#00CCFF"/>
<stop offset="1" stop-color="#5DDEFE"/>
</linearGradient>
</defs>
</svg>
