<svg width="67" height="71" viewBox="0 0 67 71" fill="none" xmlns="http://www.w3.org/2000/svg">
<path d="M62 13.567C62 20.767 56.2 26.567 49 26.567C41.8 26.567 36 20.767 36 13.567C36 6.36696 41.8 0.566956 49 0.566956C56.2 0.566956 62 6.36696 62 13.567Z" fill="url(#paint0_linear_51_2679)"/>
<path d="M48.2 54.533C48.2 57.333 46 59.533 43.2 59.533C40.5 59.533 38.3 57.333 38.3 54.533C38.3 51.833 40.5 49.533 43.2 49.533C46 49.533 48.2 51.833 48.2 54.533Z" fill="url(#paint1_linear_51_2679)"/>
<path d="M13.3 41.933C5.90005 41.933 0 36.0331 0 28.8331C0 21.6331 5.90005 15.8331 13.3 15.8331C13.3667 15.8331 13.4333 15.8331 13.5 15.8331C16.2 9.93307 22.2 5.83307 29.1 5.83307C37.9 5.83307 45.2 12.4331 46.1 20.8331C46.1666 20.8331 46.2 20.8331 46.2 20.8331C52.2 20.8331 57 25.5331 57 31.3331C57 37.1331 52.2 41.933 46.2 41.933" fill="white"/>
<path d="M39.4 41.933C34.7 41.933 31 38.2331 31 33.6331C31 29.0331 34.7 25.233 39.4 25.233C39.4 25.233 39.4333 25.233 39.5 25.233C41.2 21.533 45 18.933 49.4 18.933C54.9 18.933 59.5 23.133 60.1 28.433C60.1 28.433 60.1333 28.433 60.2 28.433C63.9 28.433 67 31.433 67 35.233C67 38.933 63.9 41.933 60.2 41.933" fill="url(#paint2_linear_51_2679)"/>
<path d="M13 52.8331C13 53.9331 12.1 54.8331 11 54.8331C9.9 54.8331 9 53.9331 9 52.8331C9 51.7331 9.9 50.8331 11 50.8331C12.1 50.8331 13 51.7331 13 52.8331ZM23 52.8331C23 53.9331 22.1 54.8331 21 54.8331C19.9 54.8331 19 53.9331 19 52.8331C19 51.7331 19.9 50.8331 21 50.8331C22.1 50.8331 23 51.7331 23 52.8331ZM33 52.8331C33 53.9331 32.1 54.8331 31 54.8331C29.9 54.8331 29 53.9331 29 52.8331C29 51.7331 29.9 50.8331 31 50.8331C32.1 50.8331 33 51.7331 33 52.8331ZM13 68.933C13 70.033 12.1 70.8331 11 70.8331C9.9 70.8331 9 70.033 9 68.933C9 67.833 9.9 66.933 11 66.933C12.1 66.933 13 67.833 13 68.933ZM23 68.933C23 70.033 22.1 70.8331 21 70.8331C19.9 70.8331 19 70.033 19 68.933C19 67.833 19.9 66.933 21 66.933C22.1 66.933 23 67.833 23 68.933ZM18 61.033C18 62.133 17.1 62.933 16 62.933C14.9 62.933 14 62.133 14 61.033C14 59.933 14.9 59.033 16 59.033C17.1 59.033 18 59.933 18 61.033ZM28 61.033C28 62.133 27.1 62.933 26 62.933C24.9 62.933 24 62.133 24 61.033C24 59.933 24.9 59.033 26 59.033C27.1 59.033 28 59.933 28 61.033Z" fill="url(#paint3_linear_51_2679)"/>
<defs>
<linearGradient id="paint0_linear_51_2679" x1="36" y1="26.567" x2="62" y2="0.566956" gradientUnits="userSpaceOnUse">
<stop stop-color="#FFBC27"/>
<stop offset="1" stop-color="#FDE252"/>
</linearGradient>
<linearGradient id="paint1_linear_51_2679" x1="38.3" y1="59.533" x2="48.2001" y2="49.5331" gradientUnits="userSpaceOnUse">
<stop stop-color="#D6F2FD"/>
<stop offset="1" stop-color="#E5F5FD"/>
</linearGradient>
<linearGradient id="paint2_linear_51_2679" x1="37.6316" y1="41.933" x2="60.5675" y2="19.1334" gradientUnits="userSpaceOnUse">
<stop stop-color="#EBEBEB"/>
<stop offset="1" stop-color="#F3F3F3"/>
</linearGradient>
<linearGradient id="paint3_linear_51_2679" x1="11" y1="70.8331" x2="31" y2="50.8331" gradientUnits="userSpaceOnUse">
<stop stop-color="#D6F2FD"/>
<stop offset="1" stop-color="#E5F5FD"/>
</linearGradient>
</defs>
</svg>
