<svg width="67" height="65" viewBox="0 0 67 65" fill="none" xmlns="http://www.w3.org/2000/svg">
<path d="M62 13.9339C62 21.1339 56.2 26.9339 49 26.9339C41.8 26.9339 36 21.1339 36 13.9339C36 6.7339 41.8 0.933899 49 0.933899C56.2 0.933899 62 6.7339 62 13.9339Z" fill="url(#paint0_linear_51_2674)"/>
<path d="M31.3 37.9339C32.9 37.9339 33.6 39.1339 32.8 40.5339L29.8 45.6339C29 47.0339 29.7 48.1339 31.4 48.0339L38 47.7339C39.7 47.6339 40 48.4339 38.7 49.5339L21.3 63.8339C20 64.9339 19.6 64.5339 20.4 63.1339L25.2 54.2339C26 52.7339 25.3 51.6339 23.6 51.8339L19.3 52.1339C17.7 52.2339 17 51.1339 17.8 49.7339L23.1 40.5339C23.9 39.1339 26 37.9339 27.6 37.9339H31.3Z" fill="url(#paint1_linear_51_2674)"/>
<path d="M13.3 41.9339C5.89999 41.9339 0 36.0339 0 28.8339C0 21.6339 5.89999 15.8339 13.3 15.8339C13.3667 15.8339 13.4333 15.8339 13.5 15.8339C16.2 9.93389 22.2 5.83389 29.1 5.83389C37.9 5.83389 45.2 12.4339 46.1 20.8339C46.1667 20.8339 46.2 20.8339 46.2 20.8339C52.2 20.8339 57 25.5339 57 31.3339C57 37.1339 52.2 41.9339 46.2 41.9339" fill="white"/>
<path d="M39.4 41.9339C34.7 41.9339 31 38.2339 31 33.6339C31 29.0339 34.7 25.2339 39.4 25.2339C39.4 25.2339 39.4333 25.2339 39.5 25.2339C41.2 21.5339 45 18.9339 49.4 18.9339C54.9 18.9339 59.5 23.1339 60.1 28.4339C60.1 28.4339 60.1333 28.4339 60.2 28.4339C63.9 28.4339 67 31.4339 67 35.2339C67 38.9339 63.9 41.9339 60.2 41.9339" fill="url(#paint2_linear_51_2674)"/>
<defs>
<linearGradient id="paint0_linear_51_2674" x1="36" y1="26.9339" x2="62" y2="0.933899" gradientUnits="userSpaceOnUse">
<stop stop-color="#FFBC27"/>
<stop offset="1" stop-color="#FDE252"/>
</linearGradient>
<linearGradient id="paint1_linear_51_2674" x1="17.5" y1="62.2339" x2="39.5" y2="40.1339" gradientUnits="userSpaceOnUse">
<stop stop-color="#FFBC27"/>
<stop offset="1" stop-color="#FDE252"/>
</linearGradient>
<linearGradient id="paint2_linear_51_2674" x1="37.6316" y1="41.9339" x2="60.5675" y2="19.1342" gradientUnits="userSpaceOnUse">
<stop stop-color="#EBEBEB"/>
<stop offset="1" stop-color="#F3F3F3"/>
</linearGradient>
</defs>
</svg>
