<svg width="40" height="14" viewBox="0 0 40 14" fill="none" xmlns="http://www.w3.org/2000/svg">
<path d="M0 0.382812H1.46875L2.82812 6.09375C2.97917 6.71354 3.19792 7.86198 3.48438 9.53906H3.55469L3.59375 9.29688L3.64844 9.00781C3.92448 7.51302 4.11719 6.54167 4.22656 6.09375L5.58594 0.382812H7.05469V13.3438H5.83594L5.90625 8C5.92188 6.41667 6.03385 4.38542 6.24219 1.90625H6.17188C5.95312 3.21875 5.7526 4.26823 5.57031 5.05469L4.15625 11.0859H2.89844L1.48438 5.05469C1.28125 4.17969 1.08073 3.13021 0.882812 1.90625H0.8125C1.02083 4.5 1.13281 6.53125 1.14844 8L1.21875 13.3438H0V0.382812Z" fill="white"/>
<path d="M11.7141 0.382812H17.0891V1.60156H13.0266V6.07812H16.6125V7.28125H13.0266V12.0938H17.2531V13.3438H11.7141V0.382812Z" fill="white"/>
<path d="M21.9047 0.382812H23.5063L25.9984 6.85938C26.3318 7.72917 26.7224 8.98177 27.1703 10.6172L27.2484 10.8828H27.3109C27.1911 8.8099 27.1208 6.82552 27.1 4.92969L27.0531 0.382812H28.35V13.3438H27.1703L24.3188 5.95312C24.0896 5.35938 23.6833 4.11198 23.1 2.21094L22.9906 1.85156H22.9125C23.0531 3.5651 23.1339 5.41146 23.1547 7.39062L23.2172 13.3438H21.9047V0.382812Z" fill="white"/>
<path d="M32.7047 0.382812H33.9859V8.92969C33.9859 11.2109 34.6266 12.3516 35.9078 12.3516C37.2047 12.3516 37.8531 11.2109 37.8531 8.92969V0.382812H39.15V9.05469C39.15 10.1484 39.0016 11.0391 38.7047 11.7266C38.5536 12.0807 38.3583 12.3906 38.1188 12.6562C37.5458 13.2969 36.8115 13.6172 35.9156 13.6172C34.6708 13.6172 33.7672 13.026 33.2047 11.8438C32.8714 11.151 32.7047 10.2214 32.7047 9.05469V0.382812Z" fill="white"/>
</svg>
